<?xml version="1.0" encoding="UTF-8"?>
<!-- Generated by Pixelmator Pro 3.7 -->
<svg width="5400" height="2088" viewBox="0 0 5400 2088" xmlns="http://www.w3.org/2000/svg">
    <g id="Layer-1">
        <g id="XMLID-1496-">
            <path id="XMLID-1545-" fill="#1b1a19" stroke="none" d="M 841.22168 81.197266 L 16.982422 557.072266 L 16.982422 1508.821899 L 841.22168 1984.695679 L 1665.460449 1508.821899 L 1665.460449 557.072266 L 841.22168 81.197266 Z M 1255.711426 1390.785522 C 1139.6875 1432.776123 1040.358887 1447.102173 968.117676 1450.598877 C 990.643555 1459.69519 1015.090332 1471.265381 1040.851074 1486.00293 C 1161.216797 1555.325562 1206.907715 1636.381348 1206.907715 1636.381348 C 1206.907715 1636.381348 1113.873535 1637.799805 993.309082 1568.818481 C 918.211426 1525.566895 872.589355 1477.289063 848.899902 1447.090454 L 851.101074 1506.943604 C 853.367676 1568.465942 852.838379 1629.581543 867.8125 1689.296265 L 839.378418 1689.296265 L 815.550293 1689.296265 C 830.523926 1629.581543 825.384766 1568.465942 827.651367 1506.943604 L 829.864746 1446.867188 C 829.824219 1446.872803 829.783691 1446.877319 829.74707 1446.883423 C 806.097656 1477.067383 760.439453 1525.468262 685.170898 1568.818481 C 564.605957 1637.799805 471.572266 1636.381348 471.572266 1636.381348 C 471.572266 1636.381348 517.263184 1555.325562 637.628418 1486.00293 C 663.54834 1471.172852 688.141113 1459.549194 710.789551 1450.427979 C 638.857422 1446.635254 540.863281 1432.091553 426.727539 1390.785522 C 183.360352 1301.930542 73.456055 1167.616089 73.456055 1167.616089 C 73.456055 1167.616089 243.959961 1135.229736 487.575684 1223.393555 C 534.686523 1240.594238 576.756348 1259.448486 614.012207 1278.668457 C 567.125 1232.862671 516.893066 1176.188965 467.393555 1106.866699 C 286.631836 852.198486 269.432129 643.706055 269.432129 643.706055 C 269.432129 643.706055 460.80957 728.196533 642.291504 982.350342 C 684.645996 1042.017334 718.016113 1099.149414 744.293457 1151.6604 C 732.334961 1082.973633 724.172363 1003.373535 724.046387 913.765137 C 724.530273 572.881836 841.22168 376.598389 841.22168 376.598389 C 841.22168 376.598389 957.912598 572.881836 958.392578 913.765137 C 958.266602 1003.373535 950.104004 1082.973633 938.149414 1151.6604 C 964.422852 1099.149414 997.796875 1042.017334 1040.147461 982.350342 C 1221.629395 728.196533 1413.01123 643.706055 1413.01123 643.706055 C 1413.01123 643.706055 1395.807129 852.198486 1215.04541 1106.866699 C 1165.545898 1176.188965 1115.318359 1232.862671 1068.431152 1278.668457 C 1105.682617 1259.448486 1147.756348 1240.594238 1194.867188 1223.393555 C 1438.479004 1135.229736 1608.98291 1167.616089 1608.98291 1167.616089 C 1608.98291 1167.616089 1499.078613 1301.930542 1255.711426 1390.785522 Z"/>
        </g>
    </g>
    <path id="Stash-Manager" fill="#000000" fill-rule="evenodd" stroke="none" d="M 5056.231934 1299.716064 L 5056.231934 1321.424072 C 5084.104492 1282.295776 5121.355469 1262.731934 5167.988281 1262.731934 C 5205.508301 1262.731934 5235.925781 1273.317871 5259.242188 1294.48999 C 5282.558105 1315.662109 5294.21582 1342.86377 5294.21582 1376.095947 C 5294.21582 1399.680176 5288.320313 1418.841919 5276.52832 1433.582031 C 5264.73584 1448.322021 5249.192383 1455.692017 5229.895996 1455.692017 C 5217.567871 1455.692017 5207.116211 1451.940063 5198.540039 1444.436035 C 5189.963867 1436.932007 5185.675781 1427.820068 5185.675781 1417.099976 C 5185.675781 1408.523926 5188.89209 1400.885986 5195.324219 1394.186035 C 5201.755859 1387.485962 5209.259766 1384.135986 5217.835938 1384.135986 C 5219.444336 1384.135986 5222.927734 1384.939941 5228.288086 1386.547974 C 5231.503906 1380.115967 5233.112305 1374.219971 5233.112305 1368.859985 C 5233.112305 1353.315918 5226.27832 1340.184082 5212.610352 1329.463989 C 5198.941895 1318.743896 5181.923828 1313.384033 5161.555664 1313.384033 C 5119.748047 1313.384033 5091.875977 1332.143799 5077.939941 1369.664063 C 5069.364258 1392.712158 5065.076172 1427.551758 5065.076172 1474.18396 L 5065.076172 1527.248047 C 5065.076172 1563.160156 5065.34375 1583.26001 5065.879883 1587.547974 C 5068.560059 1618.100098 5076.868164 1633.375977 5090.803711 1633.375977 C 5097.771973 1633.375977 5105.007813 1632.303955 5112.511719 1630.160034 C 5118.408203 1628.552002 5123.5 1627.748047 5127.788086 1627.748047 C 5144.94043 1627.748047 5153.516113 1636.323975 5153.516113 1653.476074 C 5153.516113 1672.236084 5142.52832 1681.615967 5120.551758 1681.615967 L 5117.335938 1681.615967 C 5109.295898 1681.615967 5097.102051 1680.677979 5080.753906 1678.802002 C 5064.40625 1676.926025 5052.211914 1675.988037 5044.171875 1675.988037 C 5022.731934 1675.988037 5005.848145 1676.523926 4993.52002 1677.595947 L 4948.496094 1681.615967 C 4926.519531 1681.615967 4915.532227 1672.236084 4915.532227 1653.476074 C 4915.532227 1636.859863 4925.71582 1628.552002 4946.083984 1628.552002 C 4951.444336 1628.552002 4955.463867 1628.820068 4958.144043 1629.355957 L 4970.204102 1631.768066 C 4975.563965 1632.840088 4979.315918 1633.375977 4981.459961 1633.375977 C 4994.860352 1633.375977 5002.095703 1621.048096 5003.167969 1596.391968 L 5004.775879 1555.387939 L 5002.364258 1372.880005 C 5000.755859 1341.255859 4992.71582 1325.44397 4978.244141 1325.44397 C 4973.956055 1325.44397 4968.060059 1326.248047 4960.555664 1327.855957 C 4953.051758 1329.463989 4947.15625 1330.268066 4942.868164 1330.268066 C 4925.179688 1330.268066 4916.335938 1321.692139 4916.335938 1304.540039 C 4916.335938 1285.779907 4927.859863 1276.400024 4950.908203 1276.400024 C 4956.268066 1276.400024 4964.307617 1277.070068 4975.02832 1278.409912 C 4985.748047 1279.75 4993.788086 1280.419922 4999.147949 1280.419922 C 5003.436035 1280.419922 5010.404297 1279.884033 5020.051758 1278.812012 C 5024.339844 1277.73999 5029.431641 1277.203979 5035.328125 1277.203979 C 5049.26416 1277.203979 5056.231934 1284.708008 5056.231934 1299.716064 Z M 4875.332031 1442.023926 C 4875.332031 1462.39209 4873.992188 1474.854004 4871.312012 1479.410034 C 4868.631836 1483.966064 4860.860352 1486.244019 4847.996094 1486.244019 L 4592.324219 1486.244019 C 4585.355957 1486.244019 4580.799805 1487.182007 4578.65625 1489.057983 C 4576.511719 1490.934082 4575.439941 1494.015991 4575.439941 1498.303955 C 4575.439941 1538.50415 4587.5 1572.003906 4611.620117 1598.803955 C 4635.740234 1625.604126 4665.755859 1639.004028 4701.667969 1639.004028 C 4725.251953 1639.004028 4746.826172 1632.572021 4766.389648 1619.708008 C 4785.954102 1606.843994 4798.684082 1590.496094 4804.580078 1570.664063 L 4811.815918 1547.348022 C 4815.568359 1534.483887 4824.412109 1528.052002 4838.347656 1528.052002 C 4858.180176 1528.052002 4868.095703 1538.23584 4868.095703 1558.604004 C 4868.095703 1593.444214 4850.408203 1624.397827 4815.032227 1651.466064 C 4779.655762 1678.53418 4739.456055 1692.067993 4694.431641 1692.067993 C 4638.151367 1692.067993 4593.396484 1673.174194 4560.164063 1635.385986 C 4526.931641 1597.597778 4510.315918 1546.812256 4510.315918 1483.028076 C 4510.315918 1417.635742 4528.003906 1364.572266 4563.379883 1323.835938 C 4598.755859 1283.099854 4644.851563 1262.731934 4701.667969 1262.731934 C 4752.052246 1262.731934 4793.591797 1279.615845 4826.288086 1313.384033 C 4858.984375 1347.1521 4875.332031 1390.031738 4875.332031 1442.023926 Z M 4583.47998 1421.119995 C 4583.47998 1428.624023 4589.375977 1432.375977 4601.167969 1432.375977 L 4793.324219 1432.375977 C 4804.580078 1432.375977 4810.208008 1428.624023 4810.208008 1421.119995 C 4810.208008 1392.711914 4799.488281 1368.056152 4778.047852 1347.151978 C 4756.60791 1326.247925 4731.416016 1315.796021 4702.47168 1315.796021 C 4672.456055 1315.796021 4645.120117 1326.649902 4620.463867 1348.35791 C 4595.807617 1370.066162 4583.47998 1394.319824 4583.47998 1421.119995 Z M 4276.352051 1262.731934 C 4290.288086 1262.731934 4306.099609 1264.875977 4323.788086 1269.164063 C 4326.467773 1216.635742 4357.019531 1190.37207 4415.444336 1190.37207 C 4440.100098 1190.37207 4460.73584 1196.803955 4477.352051 1209.667969 C 4493.967773 1222.531982 4502.275879 1238.879883 4502.275879 1258.711914 C 4502.275879 1271.57605 4498.12207 1282.563965 4489.813965 1291.676025 C 4481.505859 1300.788086 4471.724121 1305.343994 4460.467773 1305.343994 C 4451.891602 1305.343994 4444.387695 1302.395996 4437.956055 1296.5 C 4431.523926 1290.604004 4428.308105 1283.635986 4428.308105 1275.595947 C 4428.308105 1267.02002 4434.204102 1258.176025 4445.996094 1249.063965 C 4437.419922 1238.343994 4426.432129 1232.984009 4413.032227 1232.984009 C 4384.624023 1232.984009 4370.152344 1250.671875 4369.616211 1286.047974 C 4410.352539 1313.384155 4430.719727 1350.099854 4430.719727 1396.196045 C 4430.719727 1433.180176 4416.78418 1463.999878 4388.912109 1488.656006 C 4361.040039 1513.312134 4326.200195 1525.640015 4284.39209 1525.640015 C 4254.912109 1525.640015 4224.360352 1518.672119 4192.736328 1504.735962 C 4184.160156 1500.984009 4176.923828 1499.108032 4171.02832 1499.108032 C 4163.523926 1499.108032 4156.824219 1502.458008 4150.927734 1509.157959 C 4145.032227 1515.858032 4142.083984 1523.763916 4142.083984 1532.875977 C 4142.083984 1560.748169 4170.223633 1574.68396 4226.503906 1574.68396 L 4231.328125 1574.68396 C 4235.616211 1574.68396 4240.439941 1574.416016 4245.799805 1573.880005 C 4251.160156 1573.880005 4254.375977 1573.880005 4255.448242 1573.880005 C 4306.368164 1573.880005 4347.639648 1578.703979 4379.263672 1588.352051 C 4408.744141 1597.464111 4432.05957 1611.667969 4449.211914 1630.963989 C 4466.364258 1650.260132 4474.939941 1671.967896 4474.939941 1696.088013 C 4474.939941 1735.216187 4456.850098 1766.169922 4420.669922 1788.949951 C 4384.489746 1811.730103 4335.580078 1823.119995 4273.939941 1823.119995 C 4212.299805 1823.119995 4163.92627 1812.400146 4128.818359 1790.959961 C 4093.709717 1769.519897 4076.156006 1740.040161 4076.156006 1702.52002 C 4076.156006 1659.10376 4100.543945 1628.284058 4149.320313 1610.060059 C 4105.903809 1592.907959 4084.196045 1567.180176 4084.196045 1532.875977 C 4084.196045 1495.355835 4105.903809 1469.628052 4149.320313 1455.692017 C 4135.383789 1436.931885 4128.416016 1414.956055 4128.416016 1389.764038 C 4128.416016 1353.315796 4142.48584 1323.032104 4170.625977 1298.911987 C 4198.766113 1274.79187 4234.007813 1262.731934 4276.352051 1262.731934 Z M 4278.763672 1315.796021 C 4255.179688 1315.796021 4235.080078 1322.763916 4218.463867 1336.699951 C 4201.847656 1350.635986 4192.736328 1368.055908 4191.12793 1388.959961 C 4191.12793 1388.959961 4191.12793 1390.567993 4191.12793 1393.783936 C 4191.12793 1417.368164 4199.167969 1436.395996 4215.248047 1450.868042 C 4231.328125 1465.340088 4252.231934 1472.575928 4277.959961 1472.575928 C 4304.760254 1472.575928 4326.601563 1465.340088 4343.486328 1450.868042 C 4360.370117 1436.395996 4368.812012 1417.904053 4368.812012 1395.391968 C 4368.812012 1372.343872 4360.236328 1353.316162 4343.083984 1338.307983 C 4325.931641 1323.299927 4304.492188 1315.796021 4278.763672 1315.796021 Z M 4279.568359 1627.748047 C 4236.6875 1627.748047 4202.919922 1634.179932 4178.263672 1647.043945 C 4153.60791 1659.908081 4141.280273 1677.327881 4141.280273 1699.303955 C 4141.280273 1721.280029 4153.339844 1738.565918 4177.459961 1751.161987 C 4201.580078 1763.758057 4234.007813 1770.05603 4274.744141 1770.05603 C 4317.624023 1770.05603 4351.525879 1763.624023 4376.450195 1750.76001 C 4401.374023 1737.895996 4413.835938 1720.744141 4413.835938 1699.303955 C 4413.835938 1676.79187 4402.043945 1659.238037 4378.459961 1646.641968 C 4354.875977 1634.045898 4321.912109 1627.748047 4279.568359 1627.748047 Z M 3978.068115 1688.852051 C 3934.115723 1688.852051 3907.048096 1669.824219 3896.864014 1631.768066 C 3869.527832 1671.968262 3826.648438 1692.067993 3768.224121 1692.067993 C 3724.807617 1692.067993 3690.102051 1681.348145 3664.105957 1659.907959 C 3638.109863 1638.467896 3625.112061 1609.792236 3625.112061 1573.880005 C 3625.112061 1529.391846 3644.139648 1496.696045 3682.196045 1475.791992 C 3696.667969 1467.751953 3709.129883 1462.526001 3719.582031 1460.114014 C 3730.03418 1457.702026 3751.071777 1454.619995 3782.696045 1450.868042 C 3827.720215 1446.043945 3857.065918 1439.343994 3870.733887 1430.768066 C 3884.4021 1422.191895 3891.23584 1406.380127 3891.23584 1383.332031 C 3891.23584 1361.355957 3883.598145 1344.070068 3868.322021 1331.473999 C 3853.045898 1318.87793 3831.740234 1312.580078 3804.404053 1312.580078 C 3780.283936 1312.580078 3757.771973 1319.279907 3736.868164 1332.679932 C 3728.828125 1338.040039 3724.808105 1343.667969 3724.808105 1349.563965 C 3724.808105 1351.708008 3727.219971 1354.387939 3732.043945 1357.604004 C 3739.548096 1362.964111 3743.300049 1372.075928 3743.300049 1384.939941 C 3743.300049 1395.660034 3739.414063 1404.503906 3731.64209 1411.471924 C 3723.870117 1418.440063 3714.087891 1421.924072 3702.295898 1421.924072 C 3688.359863 1421.924072 3676.702148 1417.100098 3667.322021 1407.452026 C 3657.941895 1397.803955 3653.251953 1386.012085 3653.251953 1372.075928 C 3653.251953 1342.059814 3668.125977 1316.332031 3697.874023 1294.89209 C 3727.62207 1273.451904 3763.667969 1262.731934 3806.011963 1262.731934 C 3903.564453 1262.731934 3952.340088 1309.631592 3952.340088 1403.432007 L 3952.340088 1565.839966 C 3952.340088 1591.568115 3952.875977 1606.843994 3953.947998 1611.667969 C 3957.164063 1630.428101 3966.275879 1639.807983 3981.283936 1639.807983 C 4000.044189 1639.807983 4009.424072 1622.656128 4009.424072 1588.352051 L 4009.424072 1548.956055 C 4009.424072 1531.803955 4017.731934 1523.228027 4034.3479 1523.228027 C 4052.036133 1523.228027 4060.879883 1536.091797 4060.879883 1561.820068 L 4060.879883 1565.839966 L 4060.075928 1611.667969 C 4059.003906 1663.124268 4031.668213 1688.852051 3978.068115 1688.852051 Z M 3888.823975 1528.855957 L 3889.62793 1471.771973 C 3877.835938 1482.492065 3865.374023 1489.995972 3852.241943 1494.283936 C 3839.109863 1498.572021 3815.660156 1502.323975 3781.89209 1505.540039 C 3720.787598 1511.436035 3690.23584 1533.947754 3690.23584 1573.075928 C 3690.23584 1593.444092 3697.605957 1609.523926 3712.345947 1621.31604 C 3727.085938 1633.108032 3747.051758 1639.004028 3772.244141 1639.004028 C 3808.15625 1639.004028 3836.429932 1629.222168 3857.065918 1609.657959 C 3877.702148 1590.093872 3888.288086 1563.160156 3888.823975 1528.855957 Z M 3243.211914 1301.323975 L 3243.211914 1323.835938 C 3275.37207 1283.099854 3318.251709 1262.731934 3371.852051 1262.731934 C 3400.796143 1262.731934 3428.131836 1270.101929 3453.859863 1284.842041 C 3479.588135 1299.582031 3497.007813 1317.939941 3506.120117 1339.916016 C 3513.624023 1358.140137 3517.375977 1381.991821 3517.375977 1411.471924 L 3517.375977 1564.231934 C 3517.375977 1587.280151 3517.644043 1600.947998 3518.180176 1605.235962 C 3520.859863 1623.460083 3528.095947 1632.572021 3539.887939 1632.572021 C 3544.711914 1632.572021 3551.01001 1631.901978 3558.781982 1630.562012 C 3566.554199 1629.221924 3572.047852 1628.552002 3575.26416 1628.552002 C 3582.231934 1628.552002 3588.261963 1630.963989 3593.354004 1635.787964 C 3598.446045 1640.612061 3600.991943 1646.507935 3600.991943 1653.476074 C 3600.991943 1661.516113 3597.775879 1668.215942 3591.343994 1673.575928 C 3584.912109 1678.936035 3577.140137 1681.615967 3568.027832 1681.615967 C 3560.523926 1681.615967 3548.196045 1680.543945 3531.043945 1678.400024 C 3513.89209 1676.255981 3497.812012 1675.184082 3482.803955 1675.184082 C 3468.86792 1675.184082 3457.343994 1675.719971 3448.231934 1676.791992 C 3421.431885 1680.008057 3407.228027 1681.615967 3405.620117 1681.615967 C 3384.179932 1681.615967 3373.459961 1672.236084 3373.459961 1653.476074 C 3373.459961 1636.859863 3382.571777 1628.552002 3400.795898 1628.552002 C 3405.083984 1628.552002 3409.907959 1629.088013 3415.268066 1630.160034 C 3425.452148 1632.303955 3431.884033 1633.375977 3434.563965 1633.375977 C 3447.428223 1633.375977 3454.395996 1618.636108 3455.468018 1589.156006 L 3457.076172 1548.151978 L 3457.879883 1499.108032 L 3457.879883 1438.004028 C 3457.879883 1409.595825 3456.540039 1390.031982 3453.859863 1379.312012 C 3449.036133 1358.943848 3438.583984 1343.13208 3422.503906 1331.875977 C 3404.815918 1319.547852 3384.716064 1313.384033 3362.204102 1313.384033 C 3319.32373 1313.384033 3288.50415 1328.659912 3269.744141 1359.211914 C 3256.879883 1380.116089 3250.447998 1415.759766 3250.447998 1466.144043 L 3250.447998 1573.075928 C 3250.447998 1596.660156 3252.056152 1612.73999 3255.271973 1621.31604 C 3258.488037 1629.89209 3264.383789 1634.179932 3272.959961 1634.179932 C 3277.248047 1634.179932 3283.144043 1633.108032 3290.647949 1630.963989 C 3298.151855 1628.820068 3304.315918 1627.748047 3309.140137 1627.748047 C 3325.756104 1627.748047 3334.063965 1636.859863 3334.063965 1655.083984 C 3334.063965 1672.772095 3323.344238 1681.615967 3301.904053 1681.615967 C 3297.615967 1681.615967 3283.680176 1680.008057 3260.095947 1676.791992 C 3248.303955 1675.18396 3235.172119 1674.380005 3220.699951 1674.380005 C 3209.443848 1674.380005 3194.436035 1675.452026 3175.676025 1677.595947 C 3152.091797 1680.276001 3138.691895 1681.615967 3135.476074 1681.615967 C 3112.963867 1681.615967 3101.708008 1672.50415 3101.708008 1654.280029 C 3101.708008 1637.12793 3110.283936 1628.552002 3127.436035 1628.552002 C 3130.115967 1628.552002 3135.073975 1629.355957 3142.310059 1630.963989 C 3149.545898 1632.572021 3156.647949 1633.375977 3163.615967 1633.375977 C 3179.696045 1633.375977 3188.003906 1617.832153 3188.540039 1586.744019 L 3190.147949 1497.5 L 3190.147949 1400.216064 L 3188.540039 1372.075928 C 3187.468018 1353.851929 3185.189941 1341.390015 3181.706055 1334.689941 C 3178.221924 1327.98999 3172.191895 1324.640015 3163.615967 1324.640015 C 3159.864014 1324.640015 3154.370117 1325.310059 3147.134033 1326.650024 C 3139.897949 1327.98999 3134.404053 1328.659912 3130.651855 1328.659912 C 3111.355957 1328.659912 3101.708008 1320.084106 3101.708008 1302.932007 C 3101.708008 1285.243896 3113.767822 1276.400024 3137.887939 1276.400024 C 3141.104004 1276.400024 3143.783936 1276.667969 3145.927979 1277.203979 L 3175.676025 1280.419922 C 3184.251953 1280.419922 3191.755859 1279.884033 3198.187988 1278.812012 C 3212.124023 1277.73999 3219.359863 1277.203979 3219.895996 1277.203979 C 3235.439941 1277.203979 3243.211914 1285.243896 3243.211914 1301.323975 Z M 3012.463867 1688.852051 C 2968.511719 1688.852051 2941.444092 1669.824219 2931.26001 1631.768066 C 2903.923828 1671.968262 2861.044434 1692.067993 2802.620117 1692.067993 C 2759.203857 1692.067993 2724.498047 1681.348145 2698.501953 1659.907959 C 2672.505859 1638.467896 2659.508057 1609.792236 2659.508057 1573.880005 C 2659.508057 1529.391846 2678.535889 1496.696045 2716.592041 1475.791992 C 2731.063965 1467.751953 2743.525879 1462.526001 2753.978027 1460.114014 C 2764.430176 1457.702026 2785.467773 1454.619995 2817.092041 1450.868042 C 2862.116211 1446.043945 2891.461914 1439.343994 2905.129883 1430.768066 C 2918.798096 1422.191895 2925.631836 1406.380127 2925.631836 1383.332031 C 2925.631836 1361.355957 2917.994141 1344.070068 2902.718018 1331.473999 C 2887.441895 1318.87793 2866.13623 1312.580078 2838.800049 1312.580078 C 2814.679932 1312.580078 2792.167969 1319.279907 2771.263916 1332.679932 C 2763.223877 1338.040039 2759.204102 1343.667969 2759.204102 1349.563965 C 2759.204102 1351.708008 2761.615967 1354.387939 2766.439941 1357.604004 C 2773.944092 1362.964111 2777.696045 1372.075928 2777.696045 1384.939941 C 2777.696045 1395.660034 2773.810059 1404.503906 2766.038086 1411.471924 C 2758.266113 1418.440063 2748.484131 1421.924072 2736.691895 1421.924072 C 2722.755859 1421.924072 2711.098145 1417.100098 2701.718018 1407.452026 C 2692.337891 1397.803955 2687.647949 1386.012085 2687.647949 1372.075928 C 2687.647949 1342.059814 2702.521973 1316.332031 2732.27002 1294.89209 C 2762.018066 1273.451904 2798.063721 1262.731934 2840.407959 1262.731934 C 2937.960449 1262.731934 2986.73584 1309.631592 2986.73584 1403.432007 L 2986.73584 1565.839966 C 2986.73584 1591.568115 2987.271973 1606.843994 2988.343994 1611.667969 C 2991.560059 1630.428101 3000.671875 1639.807983 3015.680176 1639.807983 C 3034.439941 1639.807983 3043.819824 1622.656128 3043.819824 1588.352051 L 3043.819824 1548.956055 C 3043.819824 1531.803955 3052.12793 1523.228027 3068.744141 1523.228027 C 3086.432129 1523.228027 3095.275879 1536.091797 3095.275879 1561.820068 L 3095.275879 1565.839966 L 3094.472168 1611.667969 C 3093.399902 1663.124268 3066.064209 1688.852051 3012.463867 1688.852051 Z M 2923.219971 1528.855957 L 2924.023926 1471.771973 C 2912.231934 1482.492065 2899.77002 1489.995972 2886.637939 1494.283936 C 2873.505859 1498.572021 2850.056152 1502.323975 2816.288086 1505.540039 C 2755.183594 1511.436035 2724.63208 1533.947754 2724.63208 1573.075928 C 2724.63208 1593.444092 2732.001953 1609.523926 2746.741943 1621.31604 C 2761.481934 1633.108032 2781.447754 1639.004028 2806.640137 1639.004028 C 2842.552246 1639.004028 2870.825928 1629.222168 2891.461914 1609.657959 C 2912.098145 1590.093872 2922.684082 1563.160156 2923.219971 1528.855957 Z M 2130.476074 1199.216064 L 2254.291992 1606.040039 L 2390.167969 1172.684082 C 2397.135986 1150.171875 2409.195801 1138.916016 2426.348145 1138.916016 L 2430.36792 1138.916016 C 2435.728027 1138.916016 2442.696045 1139.719971 2451.271973 1141.328003 C 2461.992188 1144.008057 2468.959961 1145.348022 2472.176025 1145.348022 C 2480.751953 1146.419922 2492.543945 1146.956055 2507.552002 1146.956055 C 2523.63208 1146.956055 2536.228027 1146.151978 2545.340088 1144.543945 L 2573.47998 1139.719971 C 2575.087891 1139.184082 2578.303955 1138.916016 2583.12793 1138.916016 C 2607.78418 1138.916016 2620.112061 1148.295898 2620.112061 1167.05603 C 2620.112061 1184.208008 2611.536133 1192.783936 2594.384033 1192.783936 C 2590.095947 1192.783936 2583.798096 1192.114014 2575.48999 1190.773926 C 2567.181885 1189.434082 2560.884033 1188.763916 2556.595947 1188.763916 C 2529.259766 1188.763916 2515.592041 1208.86377 2515.592041 1249.063965 L 2515.592041 1305.343994 L 2514.788086 1376.095947 L 2514.788086 1444.436035 L 2515.592041 1571.468018 C 2515.592041 1611.668213 2528.991943 1631.768066 2555.791992 1631.768066 C 2561.1521 1631.768066 2567.047852 1630.963989 2573.47998 1629.355957 C 2585.271973 1628.283936 2592.23999 1627.748047 2594.384033 1627.748047 C 2611.536133 1627.748047 2620.112061 1636.323975 2620.112061 1653.476074 C 2620.112061 1672.772095 2608.588135 1682.419922 2585.540039 1682.419922 C 2586.612061 1682.419922 2582.592041 1681.884033 2573.47998 1680.812012 C 2536.49585 1676.523926 2505.140137 1674.380005 2479.412109 1674.380005 C 2454.219727 1674.380005 2430.100098 1676.255981 2407.052002 1680.008057 C 2397.403809 1681.615967 2388.828125 1682.419922 2381.323975 1682.419922 C 2360.419922 1682.419922 2349.968018 1673.576172 2349.968018 1655.887939 C 2349.968018 1637.66394 2360.687988 1628.552002 2382.12793 1628.552002 C 2387.488037 1628.552002 2391.508057 1628.820068 2394.187988 1629.355957 C 2405.97998 1630.427979 2412.947998 1630.963989 2415.092041 1630.963989 C 2434.388184 1630.963989 2446.447998 1610.864258 2451.271973 1570.664063 C 2452.343994 1562.087891 2452.879883 1534.752197 2452.879883 1488.656006 C 2452.879883 1470.967896 2453.147949 1445.240234 2453.684082 1411.471924 L 2455.291992 1339.112061 L 2455.291992 1196.803955 C 2455.291992 1193.588013 2453.952148 1191.97998 2451.271973 1191.97998 C 2449.664063 1191.97998 2448.056152 1193.588013 2446.447998 1196.803955 L 2298.511963 1655.887939 C 2292.080078 1676.256104 2277.072021 1686.439941 2253.488037 1686.439941 C 2239.552002 1686.439941 2229.234131 1684.430054 2222.533936 1680.410034 C 2215.833984 1676.390015 2210.60791 1668.216064 2206.855957 1655.887939 L 2061.332031 1196.803955 C 2059.724121 1193.588013 2057.8479 1191.97998 2055.704102 1191.97998 C 2053.560059 1191.97998 2052.488037 1193.588013 2052.488037 1196.803955 L 2057.312012 1570.664063 C 2057.8479 1609.792236 2068.567871 1629.355957 2089.471924 1629.355957 C 2095.36792 1629.355957 2103.407959 1628.283936 2113.592041 1626.140015 L 2123.23999 1626.140015 C 2144.144043 1626.140015 2154.595947 1635.519897 2154.595947 1654.280029 C 2154.595947 1673.040039 2143.875977 1682.419922 2122.436035 1682.419922 C 2118.684082 1682.419922 2113.056152 1681.884033 2105.552002 1680.812012 C 2093.76001 1679.203979 2081.164063 1677.328003 2067.763916 1675.184082 C 2057.043945 1673.575928 2043.376099 1672.771973 2026.76001 1672.771973 C 1997.279907 1672.771973 1978.252075 1673.575928 1969.676025 1675.184082 L 1935.907959 1681.615967 C 1934.835938 1681.615967 1933.228027 1681.884033 1931.083984 1682.419922 C 1928.939941 1682.419922 1927.332031 1682.419922 1926.26001 1682.419922 C 1901.603882 1682.419922 1889.276001 1673.040039 1889.276001 1654.280029 C 1889.276001 1646.775879 1891.687988 1640.478027 1896.511963 1635.385986 C 1901.33606 1630.293945 1907.231934 1627.748047 1914.199951 1627.748047 C 1920.096069 1627.748047 1927.063965 1628.552002 1935.104004 1630.160034 C 1943.144043 1631.768066 1949.040039 1632.572021 1952.791992 1632.572021 C 1980.128174 1632.572021 1993.796021 1612.472168 1993.796021 1572.271973 L 1993.796021 1249.063965 C 1993.796021 1208.86377 1980.128174 1188.763916 1952.791992 1188.763916 C 1948.504028 1188.763916 1942.072021 1189.434082 1933.495972 1190.773926 C 1924.919922 1192.114014 1918.488037 1192.783936 1914.199951 1192.783936 C 1897.583862 1192.783936 1889.276001 1184.208008 1889.276001 1167.05603 C 1889.276001 1148.295898 1901.335938 1138.916016 1925.456055 1138.916016 C 1927.599976 1138.916016 1931.083984 1139.184082 1935.907959 1139.719971 L 1964.047974 1142.936035 C 1977.984131 1144.543945 1991.115967 1145.348022 2003.44397 1145.348022 C 2013.628052 1145.348022 2027.429932 1144.276001 2044.849976 1142.13208 C 2062.27002 1139.988037 2075 1138.916016 2083.040039 1138.916016 C 2103.944092 1138.916016 2117.879883 1152.047852 2124.8479 1178.312012 Z M 3690.23584 418.223999 L 3687.02002 574.199951 C 3708.459961 553.831909 3728.023926 539.762085 3745.711914 531.98999 C 3763.400146 524.218018 3784.303711 520.332031 3808.423828 520.332031 C 3854.520264 520.332031 3891.503906 533.463867 3919.375977 559.728027 C 3947.248047 585.992188 3961.184082 620.563843 3961.184082 663.44397 L 3961.184082 797.712036 C 3961.184082 829.336182 3961.451904 846.755981 3961.988037 849.972046 C 3964.13208 876.772217 3971.099854 890.171997 3982.89209 890.171997 C 3987.179932 890.171997 3993.343994 889.100098 4001.384033 886.956055 C 4004.600098 886.419922 4008.887939 886.151978 4014.248047 886.151978 C 4034.080078 886.151978 4043.996094 894.99585 4043.996094 912.684082 C 4043.996094 930.37207 4031.13208 939.216064 4005.404053 939.216064 C 3998.436035 939.216064 3988.251953 938.411987 3974.852051 936.803955 C 3952.339844 934.124023 3934.115967 932.783936 3920.180176 932.783936 C 3906.243896 932.783936 3895.523926 933.320068 3888.02002 934.39209 C 3865.507813 937.608032 3851.572021 939.216064 3846.211914 939.216064 C 3836.563965 939.216064 3828.523926 936.4021 3822.092041 930.773926 C 3815.659912 925.145996 3812.443848 918.044067 3812.443848 909.468018 C 3812.443848 902.5 3815.257813 896.604004 3820.885986 891.780029 C 3826.51416 886.956055 3833.080078 884.543945 3840.583984 884.543945 C 3846.47998 884.543945 3853.447998 885.884033 3861.488037 888.563965 C 3866.312012 890.171997 3870.86792 890.976074 3875.156006 890.976074 C 3891.236084 890.976074 3899.543945 873.556152 3900.080078 838.715942 C 3900.080078 832.283936 3900.348145 819.68811 3900.884033 800.927979 L 3901.687988 766.355957 L 3901.687988 722.939941 C 3901.687988 668.2677 3896.328125 631.552124 3885.60791 612.791992 C 3870.063965 584.9198 3842.728027 570.984009 3803.600098 570.984009 C 3761.255859 570.984009 3730.436035 585.455811 3711.140137 614.400024 C 3697.73999 634.232056 3690.771973 666.123779 3690.23584 710.07605 L 3689.432129 767.963989 C 3689.432129 771.180054 3689.164063 776.539917 3688.62793 784.043945 C 3688.62793 791.012085 3688.62793 796.104004 3688.62793 799.319946 C 3688.62793 829.872192 3688.895996 847.559937 3689.432129 852.384033 C 3692.112061 878.648193 3699.883789 891.780029 3712.748047 891.780029 C 3717.036133 891.780029 3723.065918 890.842041 3730.837891 888.966064 C 3738.609863 887.089966 3744.37207 886.151978 3748.124023 886.151978 C 3765.276123 886.151978 3773.852051 894.459961 3773.852051 911.075928 C 3773.852051 929.836182 3762.060059 939.216064 3738.476074 939.216064 C 3730.971924 939.216064 3719.716064 938.411987 3704.708008 936.803955 C 3684.339844 934.659912 3666.919922 933.588013 3652.447998 933.588013 C 3643.335938 933.588013 3630.740234 934.391968 3614.660156 936 C 3593.219727 938.144043 3579.552002 939.216064 3573.656006 939.216064 C 3551.679932 939.216064 3540.691895 929.568115 3540.691895 910.271973 C 3540.691895 894.191895 3550.875977 886.151978 3571.244141 886.151978 C 3578.211914 886.151978 3583.303955 886.687988 3586.52002 887.76001 C 3595.63208 889.36792 3602.063965 890.171997 3605.815918 890.171997 C 3614.39209 890.171997 3620.153809 881.998047 3623.102051 865.650024 C 3626.050049 849.30188 3627.791992 815.936279 3628.328125 765.552002 L 3629.131836 621.635986 C 3629.131836 541.235596 3627.523926 490.450073 3624.308105 469.277954 C 3621.092041 448.105835 3613.587891 437.52002 3601.795898 437.52002 C 3598.043945 437.52002 3592.416016 438.323975 3584.912109 439.932007 C 3577.407959 441.540039 3571.511963 442.343994 3567.224121 442.343994 C 3549 442.343994 3539.887939 433.768066 3539.887939 416.615967 C 3539.887939 409.111938 3543.104004 402.680054 3549.536133 397.319946 C 3555.968018 391.959961 3563.73999 389.280029 3572.852051 389.280029 C 3575.531982 389.280029 3584.644043 390.083984 3600.187988 391.692017 C 3610.37207 392.764038 3621.359863 393.300049 3633.151855 393.300049 C 3637.976074 393.300049 3644.675781 392.764038 3653.251953 391.692017 C 3661.828125 390.619995 3667.991943 390.083984 3671.744141 390.083984 C 3684.072021 390.083984 3690.23584 398.927856 3690.23584 416.615967 Z M 3338.083984 520.332031 C 3373.996094 520.332031 3404.011719 529.711914 3428.131836 548.472046 L 3428.131836 545.255981 C 3428.131836 525.42395 3436.708008 515.508057 3453.859863 515.508057 C 3471.548096 515.508057 3480.39209 524.083862 3480.39209 541.235962 C 3480.39209 544.452026 3479.855957 552.491943 3478.78418 565.355957 C 3476.640137 576.07605 3475.567871 586.795898 3475.567871 597.515991 C 3475.567871 603.947998 3476.505859 613.327881 3478.381836 625.656006 C 3480.258057 637.984009 3481.196045 647.364014 3481.196045 653.796021 C 3481.196045 674.164063 3472.352051 684.348022 3454.664063 684.348022 C 3437.511963 684.348022 3428.667969 675.772095 3428.131836 658.619995 L 3427.328125 632.088013 C 3426.791992 616.007935 3417.546143 602.206055 3399.589844 590.682007 C 3381.633789 579.157959 3360.596191 573.395996 3336.476074 573.395996 C 3311.819824 573.395996 3291.184082 579.69397 3274.567871 592.290039 C 3257.951904 604.886108 3249.644043 620.563965 3249.644043 639.323975 C 3249.644043 673.628174 3273.227783 693.995972 3320.395996 700.427979 L 3367.027832 706.859985 C 3458.148438 719.18811 3503.708008 756.975708 3503.708008 820.223999 C 3503.708008 858.816162 3488.968262 890.037842 3459.488037 913.890015 C 3430.007813 937.742188 3391.41626 949.667969 3343.711914 949.667969 C 3299.223633 949.667969 3260.632324 937.072144 3227.936035 911.880005 C 3228.472168 917.23999 3228.73999 922.332031 3228.73999 927.156006 C 3228.73999 946.452148 3219.62793 956.099976 3201.404053 956.099976 C 3181.571777 956.099976 3171.656006 945.112061 3171.656006 923.135986 C 3171.656006 926.887939 3173.26416 912.952148 3176.47998 881.328003 C 3177.552002 873.823975 3178.087891 866.320068 3178.087891 858.815918 C 3178.087891 845.951904 3177.016113 833.89209 3174.87207 822.635986 C 3172.728027 811.379883 3171.656006 802.536011 3171.656006 796.104004 C 3171.656006 777.343872 3180.231934 767.963989 3197.384033 767.963989 C 3208.640137 767.963989 3215.741943 770.643921 3218.689941 776.004028 C 3221.638184 781.364014 3223.379883 795.567871 3223.916016 818.615967 C 3224.452148 841.664063 3236.511719 860.42395 3260.095947 874.895996 C 3283.680176 889.368042 3313.695801 896.604004 3350.144043 896.604004 C 3376.408203 896.604004 3398.115967 889.904053 3415.268066 876.504028 C 3432.419922 863.104004 3440.996094 846.220093 3440.996094 825.852051 C 3440.996094 789.403809 3412.052246 768.232056 3354.164063 762.33606 C 3298.955566 756.439941 3256.880127 745.58606 3227.936035 729.774048 C 3198.991699 713.961914 3184.52002 686.224243 3184.52002 646.560059 C 3184.52002 609.039795 3198.723877 578.62207 3227.131836 555.30603 C 3255.540039 531.989868 3292.523926 520.332031 3338.083984 520.332031 Z M 3060.704102 946.452026 C 3016.751953 946.452026 2989.684082 927.424194 2979.5 889.36792 C 2952.163818 929.568115 2909.28418 949.667969 2850.859863 949.667969 C 2807.443848 949.667969 2772.738281 938.94812 2746.741943 917.508057 C 2720.74585 896.067871 2707.748047 867.39209 2707.748047 831.47998 C 2707.748047 786.991821 2726.775879 754.296143 2764.832031 733.391968 C 2779.304199 725.351929 2791.765869 720.125977 2802.218018 717.713989 C 2812.669922 715.302002 2833.707764 712.219971 2865.332031 708.468018 C 2910.356201 703.643921 2939.701904 696.944092 2953.370117 688.368042 C 2967.038086 679.791992 2973.87207 663.980103 2973.87207 640.932007 C 2973.87207 618.955933 2966.234131 601.670044 2950.958008 589.073975 C 2935.681885 576.477905 2914.375977 570.180054 2887.040039 570.180054 C 2862.919922 570.180054 2840.408203 576.879883 2819.503906 590.280029 C 2811.463867 595.640015 2807.443848 601.267944 2807.443848 607.16394 C 2807.443848 609.307983 2809.855957 611.988037 2814.679932 615.203979 C 2822.184082 620.564087 2825.936035 629.675903 2825.936035 642.540039 C 2825.936035 653.26001 2822.050049 662.104004 2814.278076 669.072021 C 2806.505859 676.040039 2796.724121 679.524048 2784.932129 679.524048 C 2770.99585 679.524048 2759.338135 674.700073 2749.958008 665.052002 C 2740.577881 655.403931 2735.887939 643.612061 2735.887939 629.676025 C 2735.887939 599.65979 2750.761719 573.932129 2780.51001 552.491943 C 2810.258301 531.05188 2846.303711 520.332031 2888.647949 520.332031 C 2986.200439 520.332031 3034.976074 567.231567 3034.976074 661.031982 L 3034.976074 823.439941 C 3034.976074 849.168091 3035.511963 864.44397 3036.583984 869.268066 C 3039.800049 888.028076 3048.911865 897.407959 3063.919922 897.407959 C 3082.680176 897.407959 3092.060059 880.256104 3092.060059 845.952026 L 3092.060059 806.55603 C 3092.060059 789.403931 3100.36792 780.828003 3116.983887 780.828003 C 3134.672119 780.828003 3143.516113 793.691895 3143.516113 819.420044 L 3143.516113 823.439941 L 3142.711914 869.268066 C 3141.640137 920.724243 3114.304199 946.452026 3060.704102 946.452026 Z M 2971.459961 786.456055 L 2972.26416 729.371948 C 2960.471924 740.092041 2948.01001 747.595947 2934.87793 751.884033 C 2921.746094 756.171997 2898.296143 759.92395 2864.528076 763.140015 C 2803.423828 769.036011 2772.87207 791.547852 2772.87207 830.676025 C 2772.87207 851.044067 2780.241943 867.124023 2794.981934 878.916016 C 2809.722168 890.708008 2829.687988 896.604004 2854.879883 896.604004 C 2890.792236 896.604004 2919.065918 886.822021 2939.702148 867.258057 C 2960.338135 847.693848 2970.923828 820.760132 2971.459961 786.456055 Z M 2614.483887 825.047974 L 2616.092041 773.592041 C 2616.62793 751.615845 2626.275879 740.628052 2645.036133 740.628052 C 2663.796143 740.628052 2673.176025 752.955933 2673.176025 777.612061 C 2673.176025 836.036255 2665.672119 876.771973 2650.664063 899.820068 C 2630.295898 930.908203 2596.796143 946.452026 2550.164063 946.452026 C 2507.283691 946.452026 2476.732178 932.78418 2458.508057 905.447998 C 2445.10791 885.615967 2438.407959 851.848267 2438.407959 804.144043 L 2438.407959 611.18396 C 2438.407959 599.927979 2433.315918 594.300049 2423.13208 594.300049 L 2397.404053 594.300049 C 2388.827881 594.300049 2381.726074 591.486084 2376.0979 585.858032 C 2370.469971 580.22998 2367.656006 573.395996 2367.656006 565.355957 C 2367.656006 557.851929 2370.469971 551.151978 2376.0979 545.255981 C 2381.726074 539.359985 2388.023926 536.411987 2394.991943 536.411987 L 2426.348145 536.411987 C 2435.459961 536.411987 2440.016113 531.320068 2440.016113 521.135986 L 2440.016113 438.323975 C 2440.016113 417.955933 2450.467773 407.771973 2471.37207 407.771973 C 2490.667969 407.771973 2500.315918 417.955933 2500.315918 438.323975 L 2500.315918 524.352051 C 2500.315918 532.39209 2505.139893 536.411987 2514.788086 536.411987 L 2602.424072 536.411987 C 2622.791992 536.411987 2632.976074 545.79187 2632.976074 564.552002 C 2632.976074 584.384155 2621.988037 594.300049 2600.011963 594.300049 L 2511.572021 594.300049 C 2504.067871 594.300049 2500.315918 599.927979 2500.315918 611.18396 L 2500.315918 808.968018 C 2500.315918 865.248291 2518.807861 893.387939 2555.791992 893.387939 C 2593.312256 893.387939 2612.875977 870.608154 2614.483887 825.047974 Z M 2120.828125 382.043945 C 2173.356201 382.043945 2216.23584 398.927856 2249.468018 432.696045 L 2249.468018 421.439941 C 2249.468018 400.535889 2257.775879 390.083984 2274.39209 390.083984 C 2292.616211 390.083984 2301.728027 401.60791 2301.728027 424.656006 L 2301.728027 429.47998 C 2301.728027 430.552002 2300.924072 438.591919 2299.315918 453.599976 C 2297.708008 468.608032 2296.904053 486.563843 2296.904053 507.468018 C 2296.904053 510.148071 2297.439941 518.723877 2298.511963 533.196045 L 2300.924072 565.355957 C 2301.459961 568.036011 2301.728027 571.787964 2301.728027 576.612061 C 2301.728027 602.340088 2291.812012 615.203979 2271.97998 615.203979 C 2251.075928 615.203979 2240.624023 604.484131 2240.624023 583.043945 C 2240.624023 580.364014 2240.624023 579.024048 2240.624023 579.024048 L 2242.231934 557.31604 C 2242.768066 549.812012 2243.036133 543.916016 2243.036133 539.628052 C 2243.036133 507.467896 2232.182129 482.276123 2210.474121 464.052002 C 2188.765869 445.827881 2158.884277 436.715942 2120.828125 436.715942 C 2085.987793 436.715942 2058.25 445.29187 2037.614014 462.44397 C 2016.977905 479.596069 2006.660034 502.643799 2006.660034 531.588013 C 2006.660034 565.356201 2021.935791 590.279907 2052.488037 606.359985 C 2069.640137 614.936035 2099.655762 622.708008 2142.536133 629.676025 C 2206.320313 639.860107 2250.003906 653.795898 2273.587891 671.484009 C 2308.964111 697.748169 2326.6521 734.999756 2326.6521 783.23999 C 2326.6521 833.624268 2308.562256 874.62793 2272.38208 906.251953 C 2236.201904 937.876221 2189.436279 953.687988 2132.083984 953.687988 C 2070.979736 953.687988 2020.328247 934.392212 1980.128052 895.800049 C 1980.128052 897.944092 1980.395996 900.355957 1980.932007 903.036011 C 1980.932007 905.716064 1980.932007 907.323975 1980.932007 907.859985 C 1982.004028 916.436035 1982.540039 922.063965 1982.540039 924.744019 C 1982.540039 944.576172 1973.160156 954.491943 1954.400024 954.491943 C 1934.03186 954.491943 1923.848022 943.236084 1923.848022 920.723999 C 1923.848022 918.043945 1924.115967 915.900024 1924.651978 914.291992 L 1927.868042 872.484009 C 1929.475952 851.579956 1930.280029 838.180054 1930.280029 832.284058 C 1930.280029 821.563965 1928.940063 805.484131 1926.26001 784.043945 C 1923.579956 762.603882 1922.23999 746.524048 1922.23999 735.803955 C 1922.23999 711.683838 1932.42395 699.624023 1952.791992 699.624023 C 1973.696045 699.624023 1984.147949 711.683838 1984.147949 735.803955 L 1984.147949 750.276001 C 1983.612061 754.563965 1983.343994 760.727905 1983.343994 768.767944 C 1983.343994 808.968262 1996.207886 840.859863 2021.936035 864.44397 C 2047.664063 888.028076 2082.503906 899.820068 2126.456055 899.820068 C 2167.192139 899.820068 2199.619873 890.172119 2223.73999 870.875977 C 2247.860107 851.579956 2259.919922 825.316162 2259.919922 792.083984 C 2259.919922 741.163696 2227.760254 710.07605 2163.439941 698.819946 L 2117.612061 690.780029 C 2072.051758 682.73999 2036.676147 673.360107 2011.484009 662.640015 C 1988.435913 652.455933 1970.078125 636.510132 1956.410034 614.802002 C 1942.741943 593.093872 1935.907959 568.572144 1935.907959 541.235962 C 1935.907959 494.067749 1953.059814 455.744141 1987.364014 426.264038 C 2021.668213 396.783813 2066.155762 382.043945 2120.828125 382.043945 Z"/>
</svg>
